<svg xmlns="http://www.w3.org/2000/svg" version="1.1" xmlns:xlink="http://www.w3.org/1999/xlink" xmlns:svgjs="http://svgjs.dev/svgjs" viewBox="0 0 7.137604132954956 1.7703855459459312"><g transform="matrix(1,0,0,1,0.2816927729729657,0.5251927729729657)"><g><path d=" M 0.099 0.7099999999999999 Q 0.088 0.7099999999999999 0.081 0.7029999999999998 Q 0.074 0.6959999999999998 0.074 0.6849999999999998 L 0.074 0.03499999999999981 Q 0.074 0.0239999999999998 0.081 0.016999999999999793 Q 0.088 0.009999999999999787 0.099 0.009999999999999787 L 0.545 0.009999999999999787 Q 0.556 0.009999999999999787 0.5630000000000001 0.016999999999999793 Q 0.5700000000000001 0.0239999999999998 0.5700000000000001 0.03499999999999981 L 0.5700000000000001 0.11999999999999988 Q 0.5700000000000001 0.1309999999999999 0.5630000000000001 0.1379999999999998 Q 0.556 0.1449999999999998 0.545 0.1449999999999998 L 0.23 0.1449999999999998 L 0.23 0.31399999999999983 L 0.525 0.31399999999999983 Q 0.536 0.31399999999999983 0.543 0.32099999999999984 Q 0.55 0.32799999999999985 0.55 0.33899999999999986 L 0.55 0.4239999999999998 Q 0.55 0.43399999999999983 0.543 0.44099999999999984 Q 0.536 0.44799999999999984 0.525 0.44799999999999984 L 0.23 0.44799999999999984 L 0.23 0.6849999999999998 Q 0.23 0.6959999999999998 0.223 0.7029999999999998 Q 0.216 0.7099999999999999 0.20500000000000002 0.7099999999999999 L 0.099 0.7099999999999999 M 0.7070087890625 0.7099999999999999 Q 0.6960087890625 0.7099999999999999 0.6890087890625 0.7029999999999998 Q 0.6820087890625 0.6959999999999998 0.6820087890625 0.6849999999999998 L 0.6820087890625 0.03499999999999981 Q 0.6820087890625 0.0239999999999998 0.6890087890625 0.016999999999999793 Q 0.6960087890625 0.009999999999999787 0.7070087890625 0.009999999999999787 L 0.8200087890625 0.009999999999999787 Q 0.8310087890625 0.009999999999999787 0.8380087890625 0.016999999999999793 Q 0.8450087890625 0.0239999999999998 0.8450087890625 0.03499999999999981 L 0.8450087890625 0.6849999999999998 Q 0.8450087890625 0.6959999999999998 0.8380087890625 0.7029999999999998 Q 0.8310087890625 0.7099999999999999 0.8200087890625 0.7099999999999999 L 0.7070087890625 0.7099999999999999 M 1.17098291015625 0.7099999999999999 Q 1.15998291015625 0.7099999999999999 1.15298291015625 0.7029999999999998 Q 1.14598291015625 0.6959999999999998 1.14598291015625 0.6849999999999998 L 1.14598291015625 0.1489999999999998 L 0.96398291015625 0.1489999999999998 Q 0.95398291015625 0.1489999999999998 0.94698291015625 0.1419999999999998 Q 0.93998291015625 0.1349999999999998 0.93998291015625 0.12499999999999989 L 0.93998291015625 0.03499999999999981 Q 0.93998291015625 0.0239999999999998 0.94698291015625 0.016999999999999793 Q 0.95398291015625 0.009999999999999787 0.96398291015625 0.009999999999999787 L 1.48798291015625 0.009999999999999787 Q 1.49898291015625 0.009999999999999787 1.5059829101562499 0.016999999999999793 Q 1.51298291015625 0.0239999999999998 1.51298291015625 0.03499999999999981 L 1.51298291015625 0.12499999999999989 Q 1.51298291015625 0.1349999999999998 1.5059829101562499 0.1419999999999998 Q 1.49898291015625 0.1489999999999998 1.48798291015625 0.1489999999999998 L 1.30698291015625 0.1489999999999998 L 1.30698291015625 0.6849999999999998 Q 1.30698291015625 0.6959999999999998 1.29998291015625 0.7029999999999998 Q 1.29298291015625 0.7099999999999999 1.28198291015625 0.7099999999999999 L 1.17098291015625 0.7099999999999999" fill="#000000" fill-rule="nonzero"></path></g><g><path d=" M 3.503276692477775 0.7099999999999999 Q 3.492276692477775 0.7099999999999999 3.485276692477775 0.7029999999999998 Q 3.4782766924777753 0.6959999999999998 3.4782766924777753 0.6849999999999998 L 3.4782766924777753 0.1489999999999998 L 3.296276692477775 0.1489999999999998 Q 3.286276692477775 0.1489999999999998 3.279276692477775 0.1419999999999998 Q 3.272276692477775 0.1349999999999998 3.272276692477775 0.12499999999999989 L 3.272276692477775 0.03499999999999981 Q 3.272276692477775 0.0239999999999998 3.279276692477775 0.016999999999999793 Q 3.286276692477775 0.009999999999999787 3.296276692477775 0.009999999999999787 L 3.8202766924777753 0.009999999999999787 Q 3.831276692477775 0.009999999999999787 3.838276692477775 0.016999999999999793 Q 3.845276692477775 0.0239999999999998 3.845276692477775 0.03499999999999981 L 3.845276692477775 0.12499999999999989 Q 3.845276692477775 0.1349999999999998 3.838276692477775 0.1419999999999998 Q 3.831276692477775 0.1489999999999998 3.8202766924777753 0.1489999999999998 L 3.6392766924777753 0.1489999999999998 L 3.6392766924777753 0.6849999999999998 Q 3.6392766924777753 0.6959999999999998 3.632276692477775 0.7029999999999998 Q 3.625276692477775 0.7099999999999999 3.614276692477775 0.7099999999999999 L 3.503276692477775 0.7099999999999999 M 3.9652810870090254 0.7099999999999999 Q 3.9542810870090253 0.7099999999999999 3.947281087009025 0.7029999999999998 Q 3.940281087009025 0.6959999999999998 3.940281087009025 0.6849999999999998 L 3.940281087009025 0.03499999999999981 Q 3.940281087009025 0.0239999999999998 3.947281087009025 0.016999999999999793 Q 3.9542810870090253 0.009999999999999787 3.9652810870090254 0.009999999999999787 L 4.2302810870090255 0.009999999999999787 Q 4.3552810870090255 0.009999999999999787 4.427281087009026 0.0674999999999999 Q 4.499281087009026 0.12499999999999989 4.499281087009026 0.23299999999999982 Q 4.499281087009026 0.3059999999999998 4.4642810870090255 0.35499999999999987 Q 4.429281087009025 0.40399999999999986 4.370281087009025 0.4279999999999998 L 4.511281087009025 0.6779999999999998 Q 4.514281087009025 0.6839999999999998 4.514281087009025 0.6889999999999998 Q 4.514281087009025 0.6969999999999998 4.508281087009025 0.7034999999999999 Q 4.502281087009025 0.7099999999999999 4.493281087009025 0.7099999999999999 L 4.382281087009025 0.7099999999999999 Q 4.364281087009025 0.7099999999999999 4.3552810870090255 0.7004999999999999 Q 4.346281087009025 0.6909999999999998 4.342281087009026 0.6829999999999998 L 4.220281087009025 0.45399999999999985 L 4.099281087009025 0.45399999999999985 L 4.099281087009025 0.6849999999999998 Q 4.099281087009025 0.6959999999999998 4.092281087009026 0.7029999999999998 Q 4.085281087009025 0.7099999999999999 4.074281087009025 0.7099999999999999 L 3.9652810870090254 0.7099999999999999 M 4.099281087009025 0.32699999999999985 L 4.227281087009025 0.32699999999999985 Q 4.282281087009025 0.32699999999999985 4.3087810870090255 0.3019999999999998 Q 4.335281087009025 0.27699999999999986 4.335281087009025 0.23199999999999982 Q 4.335281087009025 0.18699999999999983 4.309281087009025 0.1609999999999998 Q 4.283281087009025 0.1349999999999998 4.227281087009025 0.1349999999999998 L 4.099281087009025 0.1349999999999998 L 4.099281087009025 0.32699999999999985 M 4.580287922946526 0.7099999999999999 Q 4.571287922946525 0.7099999999999999 4.565287922946525 0.7034999999999999 Q 4.559287922946525 0.6969999999999998 4.559287922946525 0.6889999999999998 Q 4.559287922946525 0.6839999999999998 4.560287922946525 0.6799999999999998 L 4.798287922946526 0.03699999999999981 Q 4.801287922946525 0.0259999999999998 4.810287922946525 0.017999999999999794 Q 4.8192879229465255 0.009999999999999787 4.8352879229465255 0.009999999999999787 L 4.963287922946526 0.009999999999999787 Q 4.979287922946526 0.009999999999999787 4.988287922946525 0.017999999999999794 Q 4.9972879229465255 0.0259999999999998 5.000287922946526 0.03699999999999981 L 5.238287922946525 0.6799999999999998 Q 5.2392879229465255 0.6839999999999998 5.2392879229465255 0.6889999999999998 Q 5.2392879229465255 0.6969999999999998 5.233287922946525 0.7034999999999999 Q 5.227287922946525 0.7099999999999999 5.2182879229465255 0.7099999999999999 L 5.1142879229465255 0.7099999999999999 Q 5.099287922946525 0.7099999999999999 5.092287922946525 0.7029999999999998 Q 5.0852879229465255 0.6959999999999998 5.083287922946525 0.6899999999999998 L 5.040287922946526 0.5779999999999998 L 4.758287922946526 0.5779999999999998 L 4.715287922946525 0.6899999999999998 Q 4.713287922946526 0.6959999999999998 4.706287922946525 0.7029999999999998 Q 4.699287922946525 0.7099999999999999 4.684287922946526 0.7099999999999999 L 4.580287922946526 0.7099999999999999 M 4.7952879229465255 0.44899999999999984 L 5.002287922946525 0.44899999999999984 L 4.899287922946526 0.1609999999999998 L 4.7952879229465255 0.44899999999999984 M 5.587252766696525 0.7199999999999999 Q 5.493252766696525 0.7199999999999999 5.427752766696525 0.6884999999999999 Q 5.362252766696525 0.6569999999999998 5.326252766696525 0.5964999999999998 Q 5.290252766696525 0.5359999999999998 5.286252766696525 0.44899999999999984 Q 5.285252766696525 0.40799999999999986 5.285252766696525 0.3609999999999998 Q 5.285252766696525 0.31399999999999983 5.286252766696525 0.27099999999999985 Q 5.290252766696525 0.18499999999999983 5.326752766696525 0.12449999999999983 Q 5.363252766696525 0.06399999999999983 5.429252766696525 0.031999999999999806 Q 5.495252766696525 -1.1102230246251565e-16 5.587252766696525 -1.1102230246251565e-16 Q 5.6542527666965245 -1.1102230246251565e-16 5.709252766696525 0.016999999999999793 Q 5.764252766696525 0.03399999999999981 5.804252766696525 0.06599999999999984 Q 5.844252766696525 0.09799999999999986 5.866252766696525 0.1409999999999998 Q 5.8882527666965245 0.18399999999999983 5.890252766696525 0.23699999999999982 Q 5.890252766696525 0.24599999999999983 5.883752766696525 0.25199999999999984 Q 5.877252766696525 0.25799999999999984 5.868252766696525 0.25799999999999984 L 5.754252766696525 0.25799999999999984 Q 5.742252766696525 0.25799999999999984 5.735252766696525 0.25199999999999984 Q 5.728252766696525 0.24599999999999983 5.724252766696525 0.23199999999999982 Q 5.709252766696525 0.17299999999999982 5.674252766696525 0.1509999999999998 Q 5.639252766696525 0.1289999999999999 5.587252766696525 0.1289999999999999 Q 5.525252766696525 0.1289999999999999 5.489252766696525 0.1629999999999998 Q 5.453252766696525 0.19699999999999984 5.450252766696525 0.27599999999999986 Q 5.447252766696525 0.3579999999999999 5.450252766696525 0.44399999999999984 Q 5.453252766696525 0.5229999999999999 5.489252766696525 0.5569999999999998 Q 5.525252766696525 0.5909999999999999 5.587252766696525 0.5909999999999999 Q 5.639252766696525 0.5909999999999999 5.674752766696525 0.5684999999999998 Q 5.710252766696525 0.5459999999999998 5.724252766696525 0.4879999999999999 Q 5.728252766696525 0.47299999999999986 5.735252766696525 0.46749999999999986 Q 5.742252766696525 0.46199999999999986 5.754252766696525 0.46199999999999986 L 5.868252766696525 0.46199999999999986 Q 5.877252766696525 0.46199999999999986 5.883752766696525 0.46799999999999986 Q 5.890252766696525 0.47399999999999987 5.890252766696525 0.4829999999999999 Q 5.8882527666965245 0.5359999999999998 5.866252766696525 0.5789999999999998 Q 5.844252766696525 0.6219999999999999 5.804252766696525 0.6539999999999998 Q 5.764252766696525 0.6859999999999998 5.709252766696525 0.7029999999999998 Q 5.6542527666965245 0.7199999999999999 5.587252766696525 0.7199999999999999 M 6.026245930759025 0.7099999999999999 Q 6.015245930759025 0.7099999999999999 6.008245930759025 0.7029999999999998 Q 6.0012459307590245 0.6959999999999998 6.0012459307590245 0.6849999999999998 L 6.0012459307590245 0.03499999999999981 Q 6.0012459307590245 0.0239999999999998 6.008245930759025 0.016999999999999793 Q 6.015245930759025 0.009999999999999787 6.026245930759025 0.009999999999999787 L 6.132245930759025 0.009999999999999787 Q 6.143245930759025 0.009999999999999787 6.1502459307590245 0.016999999999999793 Q 6.157245930759025 0.0239999999999998 6.157245930759025 0.03499999999999981 L 6.157245930759025 0.26299999999999985 L 6.363245930759025 0.028999999999999804 Q 6.367245930759025 0.0229999999999998 6.376745930759025 0.016499999999999848 Q 6.386245930759024 0.009999999999999787 6.402245930759024 0.009999999999999787 L 6.523245930759025 0.009999999999999787 Q 6.532245930759025 0.009999999999999787 6.538245930759024 0.016499999999999848 Q 6.544245930759025 0.0229999999999998 6.544245930759025 0.030999999999999805 Q 6.544245930759025 0.03799999999999981 6.540245930759024 0.042999999999999816 L 6.2832459307590245 0.34499999999999986 L 6.559245930759024 0.6769999999999998 Q 6.563245930759025 0.6809999999999998 6.563245930759025 0.6889999999999998 Q 6.563245930759025 0.6969999999999998 6.5572459307590245 0.7034999999999999 Q 6.551245930759024 0.7099999999999999 6.542245930759025 0.7099999999999999 L 6.417245930759025 0.7099999999999999 Q 6.399245930759025 0.7099999999999999 6.390245930759025 0.7019999999999998 Q 6.381245930759024 0.6939999999999998 6.378245930759024 0.6909999999999998 L 6.157245930759025 0.43499999999999983 L 6.157245930759025 0.6849999999999998 Q 6.157245930759025 0.6959999999999998 6.1502459307590245 0.7029999999999998 Q 6.143245930759025 0.7099999999999999 6.132245930759025 0.7099999999999999 L 6.026245930759025 0.7099999999999999" fill="#000000" fill-rule="nonzero"></path></g><g></g><g clip-path="url(#SvgjsClipPath1001)"><g clip-path="url(#a04e21d44-34cf-4269-886a-e1b2e46f6e21e6f72369-babc-4eab-99eb-a238f4231418)"><path d=" M 2.9498274658333283 0.31881616883384706 L 2.901786283822871 0.31881616883384706 L 2.901786283822871 0.15900296950108317 C 2.901786283822871 0.1529657385342182 2.8993880031593653 0.14717577683000432 2.895119036203105 0.14290680987374466 C 2.890850069246846 0.13863784291748493 2.885060107542632 0.13623956225397882 2.8790228765757666 0.13623956225397882 L 2.81696828627475 0.13623956225397882 C 2.810931055307885 0.13623956225397882 2.8051410936036714 0.13863784291748493 2.8008721266474117 0.14290680987374466 C 2.796603159691152 0.14717577683000443 2.794204879027646 0.1529657385342182 2.794204879027646 0.15900296950108317 L 2.794204879027646 0.31881616883384706 L 2.738285345466276 0.31881616883384706 L 2.738285345466276 0.09899339811328217 C 2.738266849411443 0.08641609442144671 2.7280657306108322 0.07622997726613046 2.7154884133189556 0.07622999086617777 L 2.6534338230179384 0.07622999086617777 C 2.6473965920510736 0.07622999086617777 2.6416066303468595 0.07862827152968399 2.6373376633906 0.08289723848594366 C 2.63306869643434 0.08716620544220333 2.630670415770834 0.09295616714641708 2.630670415770834 0.09899339811328217 L 2.630670415770834 0.31881616883384706 L 2.1305794792390866 0.31881616883384706 L 2.1305794792390866 0.09899339811328217 C 2.1305794792390866 0.08642151543651871 2.120387954668746 0.07622999086617788 2.1078160719919823 0.07622999086617777 L 2.045727956790749 0.07622999086617777 C 2.0331560741139856 0.07622999086617788 2.022964549543645 0.08642151543651871 2.022964549543645 0.09899339811328217 L 2.022964549543645 0.31881616883384706 L 1.967045015982275 0.31881616883384706 L 1.967045015982275 0.15900296950108317 C 1.967045015982275 0.14643108682431966 1.9568534914119342 0.13623956225397882 1.9442816087351706 0.13623956225397882 L 1.882227018434154 0.13623956225397882 C 1.876189787467289 0.13623956225397882 1.8703998257630752 0.13863784291748493 1.8661308588068155 0.1429068098737446 C 1.8618618918505558 0.14717577683000432 1.8594636111870495 0.15296573853421808 1.8594636111870495 0.15900296950108317 L 1.8594636111870495 0.31881616883384706 L 1.8114224291765921 0.31881616883384706 C 1.8058475487403263 0.31881616883384706 1.8005010008926943 0.3210307814642129 1.7965589651319067 0.32497281722500054 C 1.792616929371119 0.3289148529857882 1.790402316740753 0.3342614008334201 1.790402316740753 0.33983628126968585 L 1.790402316740753 0.3801667362303141 C 1.7904023167407535 0.39176635170527446 1.7998228137016317 0.4011868486661527 1.8114224291765921 0.4011868486661527 L 1.8594636111870495 0.4011868486661527 L 1.8594636111870495 0.5610000479989166 C 1.8594636111870495 0.5735718855801599 1.8696551808529107 0.5837634552460209 1.882227018434154 0.5837634552460209 L 1.9442816087351704 0.5837634552460209 C 1.9568534463164138 0.5837634552460209 1.9670450159822748 0.5735718855801599 1.9670450159822748 0.5610000479989166 L 1.9670450159822748 0.4011868486661527 L 2.022964549543645 0.4011868486661527 L 2.022964549543645 0.6210096193867176 C 2.022964549543645 0.633581456967961 2.033156119209506 0.643773026633822 2.045727956790749 0.643773026633822 L 2.1078160719919823 0.643773026633822 C 2.1203879095732256 0.643773026633822 2.1305794792390866 0.633581456967961 2.1305794792390866 0.6210096193867176 L 2.1305794792390866 0.4011868486661527 L 2.630670415770834 0.4011868486661527 L 2.630670415770834 0.6210096193867176 C 2.630670415770834 0.633581456967961 2.640861985436695 0.643773026633822 2.6534338230179384 0.643773026633822 L 2.7154884133189547 0.643773026633822 C 2.7280657306108314 0.6437730402338697 2.738266849411442 0.6335869230785536 2.738285345466276 0.6210096193867176 L 2.738285345466276 0.4011868486661527 L 2.794204879027646 0.4011868486661527 L 2.794204879027646 0.5610000479989166 C 2.794204879027646 0.5735718855801599 2.804396448693507 0.5837634552460209 2.8169682862747503 0.5837634552460209 L 2.8790228765757666 0.5837634552460209 C 2.89159471415701 0.5837634552460209 2.9017862838228714 0.5735718855801599 2.9017862838228714 0.5610000479989166 L 2.9017862838228714 0.4011868486661527 L 2.9498274658333283 0.4011868486661527 C 2.961427081308289 0.4011868486661527 2.9708475782691677 0.39176635170527446 2.9708475782691677 0.380166736230314 L 2.9708475782691677 0.33983628126968574 C 2.9708475782691677 0.3282271937316435 2.961436553371371 0.31881616883384706 2.9498274658333283 0.31881616883384706" fill="#3361e1" transform="matrix(1,0,0,1,0,0)" fill-rule="nonzero"></path></g><g clip-path="url(#a04e21d44-34cf-4269-886a-e1b2e46f6e21e6f72369-babc-4eab-99eb-a238f4231418)"><path d=" M 3.0424902900321453 -0.04865026244083814 L 2.424961628041478 -0.23689257715732007 C 2.3960500836072196 -0.2457105485226751 2.365166286502484 -0.2457105485226751 2.336254742068226 -0.23689257715732007 L 1.7187260800775586 -0.04865026244083814 C 1.6547073676656858 -0.029122653501992224 1.610970573038824 0.029950596490293524 1.6109770507812498 0.09688132939963345 L 1.6109770507812498 0.6231216881003667 C 1.6109705730388013 0.6900524210096541 1.6547073676656425 0.7491256710019549 1.7187260800775084 0.7686532799408228 L 2.336254742068226 0.9568955946573201 C 2.365166286502484 0.9657135660226752 2.3960500836072196 0.9657135660226752 2.424961628041478 0.9568955946573201 L 3.0424902900321453 0.7686532799408383 C 3.1065222772290197 0.7491377443693117 3.1502748253184585 0.6900615977888291 3.1502728442286703 0.6231216881003667 L 3.1502728442286703 0.09688132939963345 C 3.150274825318589 0.029941419711468187 3.106522277229266 -0.02913472686909993 3.04249029003243 -0.048650262440751546 M 3.067332241092682 0.6107174750202067 C 3.067340110129098 0.6485382078100006 3.0426265618203168 0.6819205503217995 3.006451022299239 0.6929540552516484 L 2.409204924939653 0.8750277883282642 C 2.3905612628213735 0.8806927446025501 2.3706551072883304 0.8806927446025501 2.3520114451700507 0.8750277883282642 L 1.7547988727106727 0.6929540552516456 C 1.718610058191991 0.6819326264887395 1.6938807546139112 0.6485473861601596 1.693884129017022 0.6107174750202067 L 1.693884129017022 0.10928554247979338 C 1.693884129017022 0.07146945503541374 1.718591980476692 0.03807865441963176 1.7547988727106727 0.027048962248354347 L 2.3520114451700507 -0.1550247708282642 C 2.3706512896905076 -0.16069047896487781 2.3905650804191967 -0.16069047896487781 2.409204924939653 -0.1550247708282642 L 3.0064510222992484 0.027048962248354347 C 3.0426265618203248 0.038082467178207124 3.067340110129102 0.07146480969000873 3.067332241092682 0.1092855424797935 Z" fill="#3361e1" transform="matrix(1,0,0,1,0,0)" fill-rule="nonzero"></path></g></g></g><defs><clipPath id="SvgjsClipPath1001"><path d=" M 1.61097705078125 -0.24349999999999988 h 1.539299641696525 v 1.2069999999999996 h -1.539299641696525 Z"></path></clipPath><clipPath id="a04e21d44-34cf-4269-886a-e1b2e46f6e21e6f72369-babc-4eab-99eb-a238f4231418"><path d=" M 1.61097705078125 0.9634999999999998 L 3.1502728442286703 0.9634999999999998 L 3.1502728442286703 -0.24349698249999988 L 1.61097705078125 -0.24349698249999988 Z"></path></clipPath></defs></svg>