<svg fill="none" height="15" viewBox="0 0 14 15" width="14" xmlns="http://www.w3.org/2000/svg"><g stroke="#4147d5" stroke-linejoin="round" stroke-width="1.5"><path d="m1.00897 9.88827c.03495.47573.39532.87353.86546.95403.36113.0619.73213.1156 1.11051.1156.37837 0 .74937-.0537 1.1105-.1156.47014-.0805.83052-.4783.86546-.95403.04991-.67954.10199-1.38418.10199-2.10647s-.05208-1.42693-.10199-2.10647c-.03494-.4757-.39532-.87354-.86546-.95406-.36113-.06186-.73213-.11562-1.1105-.11562-.37838 0-.74938.05376-1.11051.11562-.47014.08052-.83051.47836-.86546.95406-.049908.67954-.101988 1.38418-.101988 2.10647s.05208 1.42693.101988 2.10647z" fill="#d7e0ff"/><path d="m9.24701 9.88971c.03409.47509.39279.87369.86199.95559.3475.0606.7043.1126 1.0681.1126s.7206-.052 1.0681-.1126c.4692-.0819.8279-.4805.862-.95559.0488-.67998.0997-1.38511.0997-2.10791s-.0509-1.42793-.0997-2.10791c-.0341-.47507-.3928-.87369-.862-.95554-.3475-.06062-.7043-.1127-1.0681-.1127s-.7206.05208-1.0681.1127c-.4692.08185-.8279.48047-.86199.95554-.04879.67998-.09973 1.38511-.09973 2.10791s.05094 1.42793.09973 2.10791z" fill="#d7e0ff"/><path d="m9.14728 7.7818h-4.08439" stroke-linecap="round"/></g></svg>